<svg xmlns="http://www.w3.org/2000/svg" xmlns:xlink="http://www.w3.org/1999/xlink" id="Page-1" x="0px" y="0px" viewBox="0 0 540 316" style="enable-background:new 0 0 540 316;" xml:space="preserve"> <style type="text/css"> .st0{fill:#FFFFFF;} .st1{fill:#D9D9D9;} .st2{opacity:0.3;fill:#AE6FFA;} .st3{fill:#F2F2F2;} .st4{fill:#00A5FF;} .st5{fill:#3F3A4B;} .st6{fill:#AE6FFA;} .st7{fill:none;stroke:#D9D9D9;stroke-width:1.619;} .st8{fill-rule:evenodd;clip-rule:evenodd;fill:#FFFFFF;} .st9{fill:#9E9E9E;} .st10{fill:#757575;} </style> <g id="Artboard" transform="translate(0)"> <g id="leo-privacy" transform="translate(0)"> <path id="Path" class="st0" d="M493.4,147.2c0,1.9,1.5,3.5,3.4,3.5c0,0,0,0,0.1,0h35.3c1.9,0,3.5-1.5,3.5-3.4c0,0,0,0,0-0.1v-22.8 c0-1.9-1.5-3.5-3.4-3.5c0,0,0,0-0.1,0h-35.3c-1.9,0-3.5,1.5-3.5,3.4c0,0,0,0,0,0.1V147.2z"></path> <path id="Shape" class="st1" d="M496.9,151.5h35.3c2.4,0,4.3-1.9,4.3-4.3v-22.8c0-2.4-1.9-4.3-4.3-4.3h-35.3 c-2.4,0-4.3,1.9-4.3,4.3v22.8C492.6,149.6,494.5,151.5,496.9,151.5z M532.2,121.6c1.5,0,2.7,1.2,2.7,2.7v22.8 c0,1.5-1.2,2.7-2.7,2.7h-35.3c-1.5,0-2.7-1.2-2.7-2.7v-22.8c0-1.5,1.2-2.7,2.7-2.7L532.2,121.6z"></path> <path id="Path-2" class="st1" d="M499.5,132h19.9c0.4,0,0.8-0.3,0.8-0.8c0-0.4-0.3-0.8-0.8-0.8c0,0,0,0-0.1,0h-19.9 c-0.4,0-0.8,0.3-0.8,0.8C498.6,131.6,499,132,499.5,132C499.4,132,499.4,132,499.5,132z"></path> <path id="Path-3" class="st2" d="M525.3,126.8c1.1-0.6,1.2-1.3,1.2-1.3s0.1,0.7,1.2,1.3c0.6,0.3,1.3,0.4,2,0.4 c-0.1,2.2-1.3,4.2-3.2,5.3c-1.9-1.1-3.1-3.1-3.2-5.3C524.1,127.2,524.7,127,525.3,126.8z"></path> <path id="Path-4" class="st1" d="M516.5,138.4h13.1c0.4,0,0.8-0.3,0.8-0.8c0-0.4-0.3-0.8-0.8-0.8c0,0,0,0-0.1,0h-13.1 c-0.4,0-0.8,0.3-0.8,0.8C515.7,138,516,138.4,516.5,138.4C516.5,138.4,516.5,138.4,516.5,138.4z"></path> <path id="Path-5" class="st1" d="M499.3,138.4h13c0.4,0,0.8-0.3,0.8-0.8c0-0.4-0.3-0.8-0.8-0.8c0,0,0,0-0.1,0h-13 c-0.4,0-0.8,0.3-0.8,0.7c0,0,0,0.1,0,0.1C498.5,138,498.9,138.4,499.3,138.4z"></path> <path id="Path-6" class="st1" d="M512.3,144.2h17.3c0.4,0,0.8-0.4,0.8-0.8c0-0.4-0.4-0.8-0.8-0.8h-17.2c-0.4,0-0.8,0.3-0.8,0.7 c0,0,0,0.1,0,0.1C511.6,143.8,511.9,144.2,512.3,144.2C512.3,144.2,512.3,144.2,512.3,144.2z"></path> <path id="Path-7" class="st1" d="M500.1,144.2h8.4c0.4,0,0.8-0.4,0.8-0.8c0-0.4-0.4-0.8-0.8-0.8h-8.4c-0.4,0-0.8,0.4-0.8,0.8 C499.3,143.8,499.7,144.2,500.1,144.2z"></path> <path id="Path-8" class="st0" d="M37.2,292.8H18.9c-10,0-18.1-8.1-18.1-18.1c0,0,0,0,0-0.1V258c0-0.9,0.7-1.6,1.6-1.6h51.2 c0.9,0,1.6,0.7,1.6,1.6v16.6C55.3,284.6,47.2,292.7,37.2,292.8C37.2,292.8,37.2,292.8,37.2,292.8z"></path> <path id="Path-9" class="st3" d="M38.9,292.8h-21c-3.5,0-17-4-17-15.4v-19.5c0-0.8-4.7,12.1,11.3,26.3 C19.5,290.7,29.1,293.8,38.9,292.8z"></path> <path id="Path-10" class="st4" d="M16,211c0.6-9.1,1.5-18.1,3-27.1c1.4-9.2,3.5-18.3,6.3-27.1c0.2-0.6,0.7-1,1.3-1.1 c1-0.3,2,0.2,2.3,1.1c2.9,8.8,5,17.9,6.3,27.1c1.5,9.1,2.4,18.1,3,27.1l-2.8,45.4H16.7L16,211z"></path> <path id="Shape-2" class="st5" d="M16.7,257.2h18.9c0.4,0,0.8-0.3,0.8-0.7l2.7-45.4V211c-0.6-9.6-1.6-18.5-3-27.2 c-1.4-9.3-3.5-18.4-6.4-27.3c-0.5-1.3-2-2-3.3-1.6c-0.9,0.2-1.6,0.8-1.9,1.6c-2.9,8.9-5,18-6.4,27.3c-1.4,8.7-2.3,17.6-3,27.2v0.1 l0.6,45.4C15.8,256.9,16.2,257.2,16.7,257.2z M34.8,255.6H17.5L16.8,211c0.6-9.6,1.6-18.4,3-27c1.4-9.2,3.5-18.2,6.3-27 c0.1-0.3,0.4-0.5,0.7-0.6c0.5-0.1,1.1,0.1,1.4,0.6c2.8,8.8,4.9,17.9,6.3,27c1.4,8.7,2.3,17.5,3,27L34.8,255.6z"></path> <path id="Path-11" class="st6" d="M26.9,256.4c-0.1-0.3-0.1-0.6-0.2-0.9c-1.2-7.9-3.1-15.8-4.9-23.6c-2-8.1-4.4-16.2-7.1-24.2 c-2.7-8.2-6-16.2-10-23.9c-0.4-0.7-1.3-1-2.1-0.6c-0.5,0.1-0.9,0.6-1,1.1c-0.8,8.4-1,16.8-0.6,25.3c0.3,8.3,1.1,16.7,2.2,24.9 c1,7.1,2,14.2,3.5,21.4"></path> <path id="Path-12" class="st6" d="M47.8,256c0.3-1,0.6-2,0.9-3.1c1.9-8.2,3.1-16.4,4.2-24.6c1.1-8.3,1.9-16.5,2.2-24.9 c0.4-8.4,0.2-16.9-0.6-25.3c-0.2-0.8-0.9-1.3-1.7-1.2c-0.5,0.1-1,0.4-1.3,0.8c-3.9,7.7-7.2,15.7-10,23.9c-1.1,3.2-2.1,6.3-3.1,9.5 c-1.5,4.9-2.8,9.9-4.1,14.8c-2,8.1-3.9,16.3-5.1,24.5c-0.2,1.9-0.3,3.7-0.4,5.7"></path> <path id="Path-13" class="st5" d="M27.6,256.8h0.2c0.4-0.1,0.7-0.5,0.6-0.9c-1.1-7.6-8.6-36.9-13-48.4c-2.7-8.2-6.1-16.2-10-24 c-0.6-1.1-1.9-1.5-3.1-1.1c-0.8,0.3-1.3,1-1.5,1.8c-0.8,8.4-1.1,16.9-0.6,25.4c0.3,8,1.1,16.2,2.2,24.9c0.9,6.9,2,14.2,3.5,21.4 c0.1,0.4,0.5,0.7,1,0.6c0.4-0.1,0.7-0.5,0.6-1C6,248.6,4.9,241.3,4,234.4c-1.1-8.7-1.9-16.8-2.2-24.9c-0.4-8.4-0.2-16.8,0.6-25.2 c0-0.2,0.2-0.3,0.4-0.4c0.5-0.2,1,0,1.1,0.3c3.9,7.7,7.2,15.6,9.9,23.7c4.5,11.4,11.8,40.6,13,48.1 C26.8,256.5,27.2,256.8,27.6,256.8z"></path> <path id="Path-14" class="st5" d="M16,212.2c0.4,0,0.8-0.3,0.8-0.7c0.6-9.6,1.6-18.4,3-27c1.4-9.2,3.5-18.2,6.3-27 c0.1-0.3,0.4-0.5,0.7-0.6c0.5-0.1,1.1,0.1,1.4,0.6c2.8,8.8,4.9,17.9,6.3,27c1.4,8.7,2.3,17.5,3,27c0,0.4,0.4,0.8,0.9,0.8 s0.8-0.4,0.8-0.9c0,0,0,0,0-0.1c-0.6-9.6-1.6-18.5-3-27.2c-1.4-9.3-3.5-18.4-6.4-27.3c-0.5-1.3-2-2-3.3-1.6 c-0.9,0.2-1.6,0.8-1.9,1.6c-2.9,8.9-5,18-6.4,27.3c-1.4,8.7-2.3,17.6-3,27.2C15.2,211.8,15.5,212.2,16,212.2 C16,212.2,16,212.2,16,212.2z"></path> <path id="Path-15" class="st5" d="M28.9,256.8c0.4,0,0.8-0.4,0.8-0.8c0-1.9,0.1-3.7,0.4-5.6c1.3-8.6,3.3-17.1,5.1-24.4 c2.2-8.6,4.5-16.4,7.1-24.1c2.7-8.1,6-16.1,9.9-23.7c0.1-0.2,0.4-0.3,0.6-0.3c0.4,0,0.7,0.2,0.9,0.5c0.9,8.4,1,16.8,0.6,25.2 c-0.3,8-1.1,16.1-2.2,24.9c-1,7.4-2.3,16-4.2,24.5c-0.2,1-0.6,2-0.9,3c-0.2,0.4,0.1,0.9,0.5,1.1c0.4,0.2,0.9-0.1,1.1-0.5 c0.3-1.1,0.6-2,0.9-3.1c1.8-8.2,3.2-16.4,4.2-24.7c1.1-8.7,1.9-16.9,2.2-24.9c0.5-8.5,0.2-17-0.6-25.4c-0.2-1.2-1.4-2.1-2.6-1.9 c-0.8,0.1-1.5,0.5-1.9,1.2c-3.9,7.7-7.2,15.7-10,24c-2.7,7.7-5,15.7-7.2,24.3c-1.8,7.4-3.9,15.9-5.1,24.6 c-0.3,1.9-0.4,3.8-0.4,5.7C28.2,256.6,28.5,256.8,28.9,256.8z"></path> <path id="Path-16" class="st5" d="M16.7,256.1h0.2c0.4-0.1,0.7-0.5,0.6-1L13,231.4c-0.1-0.4-0.5-0.7-1-0.6 c-0.4,0.1-0.7,0.5-0.6,0.9l4.5,23.7C16,255.8,16.3,256.1,16.7,256.1z"></path> <path id="Path-17" class="st5" d="M38.1,256.8c0.4,0,0.7-0.3,0.8-0.6l5.8-30.6c0.1-0.5-0.2-0.9-0.7-1c-0.4-0.1-0.8,0.2-0.9,0.6 l-5.8,30.6c-0.1,0.4,0.2,0.9,0.6,1L38.1,256.8z"></path> <path id="Path-18" class="st5" d="M27.6,256.8c0.4,0,0.8-0.3,0.8-0.7c0,0,0-0.1,0-0.1v-62.6c0-0.4-0.4-0.8-0.8-0.8 c-0.4,0-0.8,0.4-0.8,0.8V256C26.8,256.4,27.2,256.8,27.6,256.8z"></path> <path id="Path-19" class="st1" d="M19,270.1h35.4c0.9,0,1.6-0.7,1.6-1.6s-0.7-1.6-1.6-1.6H19c-0.9,0-1.6,0.7-1.6,1.6 S18.1,270.1,19,270.1L19,270.1z"></path> <path id="Path-20" class="st1" d="M19,280.3h34.8c0.9,0,1.6-0.7,1.6-1.6c0-0.9-0.7-1.6-1.6-1.6H19c-0.9,0-1.6,0.7-1.6,1.6 C17.4,279.6,18.1,280.3,19,280.3z"></path> <path id="Shape-3" class="st5" d="M18.9,293.6h18.2c10.5,0,18.9-8.5,18.9-18.9V258c0-1.3-1-2.4-2.3-2.4c0,0-0.1,0-0.1,0H2.4 c-1.3,0-2.4,1-2.4,2.3c0,0,0,0.1,0,0.1v16.6C0,285.1,8.5,293.5,18.9,293.6z M53.7,257.2c0.4,0,0.8,0.3,0.8,0.7c0,0,0,0.1,0,0.1 v16.6c0,9.6-7.8,17.3-17.3,17.3H18.9c-9.6,0-17.3-7.8-17.3-17.3V258c0-0.4,0.3-0.8,0.7-0.8c0,0,0.1,0,0.1,0H53.7z"></path> <path id="Path-21" class="st3" d="M8.7,296.6h38.9c0.9,0,1.6-0.7,1.7-1.6c0-0.9-0.7-1.6-1.6-1.7c0,0-0.1,0-0.1,0H8.7 c-0.9,0-1.6,0.7-1.6,1.6C7.1,295.8,7.8,296.5,8.7,296.6z"></path> <path id="Path-22" class="st3" d="M396.3,291.5C442,291.5,508,215.3,508,77.6v-8.3l-7.4-2.3c0,0-27.9-4-52.3-17.7 c-18-10-45.1-34.8-45.3-35.1l-6.4-6.2L386,8.1l3.6,5.7C389.4,14,363,35,343.4,47.4c-21.9,13.8-50.3,19.8-50.5,19.9l-8.3,1.7v8.6 c0,79,20.5,129.5,37.7,158C343.1,270.1,371.5,291.5,396.3,291.5z"></path> <g id="Clipped" transform="translate(252.2 15.221)"> <g id="Group"> <g id="Path-23" transform="translate(0)"> <line id="Line_27" class="st7" x1="288.2" y1="0" x2="0" y2="0"></line> <line id="Line_28" class="st7" x1="288.2" y1="8.7" x2="0" y2="8.7"></line> <line id="Line_29" class="st7" x1="288.2" y1="17.3" x2="0" y2="17.3"></line> <line id="Line_30" class="st7" x1="288.2" y1="26" x2="0" y2="26"></line> <line id="Line_31" class="st7" x1="288.2" y1="34.7" x2="0" y2="34.7"></line> <line id="Line_32" class="st7" x1="288.2" y1="43.3" x2="0" y2="43.3"></line> <line id="Line_33" class="st7" x1="288.2" y1="52" x2="0" y2="52"></line> <line id="Line_34" class="st7" x1="288.2" y1="60.6" x2="0" y2="60.6"></line> <line id="Line_35" class="st7" x1="288.2" y1="69.3" x2="0" y2="69.3"></line> <line id="Line_36" class="st7" x1="288.2" y1="78" x2="0" y2="78"></line> <line id="Line_37" class="st7" x1="288.2" y1="86.6" x2="0" y2="86.6"></line> <line id="Line_38" class="st7" x1="288.2" y1="95.2" x2="0" y2="95.2"></line> <line id="Line_39" class="st7" x1="288.2" y1="103.9" x2="0" y2="103.9"></line> <line id="Line_40" class="st7" x1="288.2" y1="112.5" x2="0" y2="112.5"></line> <line id="Line_41" class="st7" x1="288.2" y1="121.2" x2="0" y2="121.2"></line> <line id="Line_42" class="st7" x1="288.2" y1="129.9" x2="0" y2="129.9"></line> <line id="Line_43" class="st7" x1="288.2" y1="138.5" x2="0" y2="138.5"></line> <line id="Line_44" class="st7" x1="288.2" y1="147.2" x2="0" y2="147.2"></line> <line id="Line_45" class="st7" x1="288.2" y1="155.9" x2="0" y2="155.9"></line> <line id="Line_46" class="st7" x1="288.2" y1="164.5" x2="0" y2="164.5"></line> <line id="Line_47" class="st7" x1="288.2" y1="173.2" x2="0" y2="173.2"></line> <line id="Line_48" class="st7" x1="288.2" y1="181.8" x2="0" y2="181.8"></line> <line id="Line_49" class="st7" x1="288.2" y1="190.5" x2="0" y2="190.5"></line> <line id="Line_50" class="st7" x1="288.2" y1="199.2" x2="0" y2="199.2"></line> <line id="Line_51" class="st7" x1="288.2" y1="207.8" x2="0" y2="207.8"></line> <line id="Line_52" class="st7" x1="288.2" y1="216.5" x2="0" y2="216.5"></line> <line id="Line_53" class="st7" x1="288.2" y1="225.2" x2="0" y2="225.2"></line> <line id="Line_54" class="st7" x1="288.2" y1="233.8" x2="0" y2="233.8"></line> <line id="Line_55" class="st7" x1="288.2" y1="242.5" x2="0" y2="242.5"></line> <line id="Line_56" class="st7" x1="288.2" y1="251.1" x2="0" y2="251.1"></line> <line id="Line_57" class="st7" x1="288.2" y1="259.7" x2="0" y2="259.7"></line> <line id="Line_58" class="st7" x1="288.2" y1="268.4" x2="0" y2="268.4"></line> </g> </g> </g> <path id="Path-24" class="st0" d="M385.1,291.5c45.7,0,111.7-76.2,111.7-213.9v-9.2l-9.1-1.1c-0.2,0-26.2-3.6-50.5-17.1 c-18-10-45.1-35.5-45.3-35.7l-6.5-6.2l-7,5.6c-0.2,0.2-26.6,21.2-46.2,33.6c-21.9,13.8-50.3,19.8-50.5,19.9l-8.3,1.7v8.6 c0,79,20.5,129.5,37.7,158C332,270.1,360.4,291.5,385.1,291.5z"></path> <path id="Shape-4" class="st5" d="M385.1,292.3c46,0,112.5-76.4,112.5-214.7v-9.2c0-0.4-0.3-0.7-0.7-0.8l-9.1-1.1 c-0.2,0-26-3.5-50.3-17c-17.6-9.9-44-34.6-45.2-35.6L386,7.6c-0.3-0.3-0.7-0.3-1.1-0.1l-7,5.6c-0.2,0.2-26.5,21.1-46.1,33.5 c-21.7,13.7-50,19.8-50.3,19.8l-8.3,1.7c-0.4,0.1-0.7,0.4-0.6,0.8v8.6c0,79.2,20.6,129.9,37.9,158.4 C331.5,270.7,360,292.3,385.1,292.3z M496.1,69.1v8.6c0,137.2-65.6,213.1-110.9,213.1c-24.5,0-52.6-21.3-73.4-55.5 c-17.2-28.3-37.6-78.7-37.6-157.6v-7.9l7.6-1.6c0.3-0.1,28.9-6.2,50.8-20.1c19.7-12.5,46-33.4,46.3-33.6l6.4-5.1l6,5.7 c1.1,1.1,27.7,25.9,45.5,35.9c24.7,13.6,50.7,17.1,50.9,17.1L496.1,69.1z"></path> <path id="Path-25" class="st4" d="M283.8,77.6c0,135.4,62.7,203.3,101.4,203.3c36.8,0,101.4-67.6,101.4-203.3 c0,0-27.7-3.6-54.2-18.3c-19.3-10.8-47.4-37.2-47.4-37.2S358,43.5,337.7,56.3C313.9,71.3,283.8,77.6,283.8,77.6z"></path> <path id="Shape-5" class="st5" d="M385.1,281.8c20.6,0,46.1-20.1,65.2-51.2c16.9-27.5,37-76.5,37-152.9c0-0.4-0.3-0.7-0.7-0.8 c-0.2,0-27.9-3.7-53.9-18.2c-18.9-10.5-47-36.8-47.3-37.1c-0.3-0.3-0.7-0.3-1.1-0.1c-0.2,0.2-27,21.5-47,34.2 c-23.4,14.8-53.4,21.1-53.7,21.2c-0.4,0.1-0.7,0.4-0.6,0.8c0,76.8,19.8,125.5,36.4,152.9C338.4,262.1,363.6,281.8,385.1,281.8z M485.7,78.4c-0.2,75.7-20.1,124.1-36.8,151.4c-18.8,30.6-43.8,50.4-63.8,50.4c-21,0-45.7-19.4-64.5-50.5 c-16.4-27.1-35.9-75.4-36.1-151.3c4.5-1.1,31.8-7.5,53.6-21.3c18.5-11.7,42.7-30.8,46.6-33.8c3.9,3.6,29.3,27,47,36.8 C455.9,73.4,481.2,77.6,485.7,78.4z"></path> <path id="Path-26" class="st6" d="M318.8,141l51.7-52.6c5.3-5.5,14.1-5.6,19.6-0.3c0.1,0.1,0.2,0.2,0.3,0.3l51.7,52.7 c5.4,5.7,5.4,14.6,0,20.2l-34.6,35.2c-4.5,4.6-10.7,7.2-17.1,7.2h-19.9c-6.4,0-12.6-2.6-17.1-7.2l-34.6-35.2 C313.3,155.6,313.3,146.6,318.8,141z"></path> <path id="Shape-6" class="st5" d="M370.5,204.4h19.9c6.6,0,13-2.7,17.6-7.4l34.6-35.2c5.7-6,5.7-15.4,0-21.4l-51.7-52.7 c-2.8-2.8-6.6-4.4-10.5-4.5c-4,0-7.8,1.6-10.5,4.5l-51.7,52.7c-5.7,6-5.7,15.4,0,21.4l34.6,35.2 C357.4,201.7,363.8,204.4,370.5,204.4z M380.4,84.9c3.5,0,6.9,1.4,9.3,4l51.7,52.7c5.2,5.3,5.2,13.8,0,19.1l-34.6,35.2 c-4.3,4.5-10.3,7-16.5,7h-19.9c-6.2,0-12.2-2.5-16.5-7l-34.6-35.2c-5.2-5.3-5.2-13.8,0-19.1l51.7-52.7 C373.5,86.3,376.9,84.9,380.4,84.9L380.4,84.9z"></path> <path id="Path-27" class="st8" d="M379.6,146.2c-3.7,1-5.9,4.8-5,8.5c0,0,0,0.1,0,0.1c1,3.8,4.9,6,8.7,5l42.7-11 c3.7-1,5.9-4.8,5-8.5c0,0,0-0.1,0-0.1c-1-3.8-4.9-6-8.7-5L379.6,146.2z"></path> <path id="Shape-7" class="st5" d="M375.1,148.8L375.1,148.8c-1.1,1.8-1.3,3.9-0.7,5.9c1.2,4.2,5.5,6.6,9.7,5.6l42.7-11 c4.1-1,6.6-5.1,5.6-9.2c0-0.1-0.1-0.2-0.1-0.3c-1.2-4.2-5.5-6.6-9.7-5.6l-42.7,11C377.8,145.8,376.1,147.1,375.1,148.8z M430,145 c-0.8,1.4-2.2,2.5-3.8,2.9l-42.7,11c-3.4,0.9-6.8-1.1-7.7-4.5c-0.5-1.6-0.3-3.3,0.6-4.7c0.8-1.4,2.2-2.5,3.8-2.9l42.7-11 c3.4-0.9,6.8,1.1,7.7,4.5C431,141.8,430.8,143.5,430,145z"></path> <path id="Path-28" class="st8" d="M375.6,187.9c2.7,2.7,7.1,2.8,9.8,0.1c0,0,0,0,0.1-0.1c2.8-2.8,2.8-7.3,0-10 c-2.7-2.7-7.1-2.8-9.8-0.1c0,0,0,0-0.1,0.1C372.9,180.7,372.9,185.1,375.6,187.9z"></path> <path id="Shape-8" class="st5" d="M380.5,190.8c2.1,0,4.1-0.8,5.5-2.3c3-3.1,3-8.1,0-11.2c-2.9-3-7.7-3.1-10.8-0.2 c-0.1,0.1-0.2,0.1-0.2,0.2c-3,3.1-3,8.1,0,11.2C376.5,189.9,378.4,190.8,380.5,190.8z M380.5,176.6c1.6,0,3.2,0.7,4.4,1.9 c2.4,2.5,2.4,6.4,0,8.9c-1.1,1.2-2.7,1.9-4.4,1.9c-1.6,0-3.2-0.7-4.4-1.9c-2.4-2.5-2.4-6.4,0-8.9 C377.3,177.3,378.9,176.6,380.5,176.6z"></path> <path id="Path-29" class="st8" d="M395.3,119.1l-21.7,5.6c-3.7,1-5.9,4.8-5,8.5c0,0,0,0.1,0,0.1c1,3.8,4.9,6,8.7,5l21.7-5.6 c3.7-1,5.9-4.8,5-8.5c0,0,0-0.1,0-0.1C403,120.4,399.1,118.1,395.3,119.1z"></path> <path id="Shape-9" class="st5" d="M368.6,127.8c-1.1,1.8-1.3,3.9-0.7,5.9c1.2,4.2,5.5,6.6,9.7,5.6l21.7-5.6c4.1-1,6.6-5.1,5.6-9.2 c0-0.1-0.1-0.2-0.1-0.3c-1.2-4.2-5.5-6.6-9.7-5.6l-21.7,5.6C371.3,124.6,369.6,125.9,368.6,127.8z M402.6,129.3 c-0.8,1.4-2.2,2.5-3.8,2.9l-21.7,5.6c-3.4,0.9-6.8-1.1-7.7-4.5c-0.5-1.6-0.3-3.3,0.6-4.7c0.8-1.4,2.2-2.5,3.8-2.9l21.7-5.6 c3.4-0.9,6.8,1.1,7.7,4.5C403.6,126.1,403.4,127.8,402.6,129.3L402.6,129.3z"></path> <path id="Path-30" class="st5" d="M383.3,292.3h13c46,0,112.5-76.4,112.5-214.7v-9.9l-0.6-0.1c-0.3-0.1-35.4-5.6-59.3-18.9 c-17.9-10-44.9-34.7-45.2-34.9L397,7.4h-11.6v1.6h10.9l6.2,5.9c0.2,0.2,27.4,25.1,45.5,35.1c22.3,12.4,54.2,18.1,59.2,18.9v8.6 c0,137.2-65.6,213.1-110.9,213.1h-13V292.3z"></path> <path id="Path-31" class="st3" d="M364.6,296.7h51.5c0.9,0,1.6-0.7,1.6-1.6s-0.7-1.6-1.6-1.6h-51.5c-0.9,0-1.6,0.7-1.6,1.6 C363,296,363.7,296.7,364.6,296.7z"></path> <path id="Path-32" class="st1" d="M70.6,304.8c0,3.8-13,10.4,58.2,10.4c22.8,0,73-6.3,103.5-8.3c64.6-4.4,82.7-4,88.8-14.1 c0.4-0.6-33.3-0.5-104.5-0.5c-23.3,0-44.5,2.9-65.8,4.3C107,299.4,70.6,302.2,70.6,304.8z"></path> <path id="Path-33" class="st5" d="M364.6,293.6h156.3c0.4,0,0.8-0.4,0.8-0.8c0-0.4-0.4-0.8-0.8-0.8H364.6c-0.4,0-0.8,0.3-0.8,0.7 c0,0,0,0.1,0,0.1C363.8,293.2,364.1,293.6,364.6,293.6z"></path> <path id="Path-34" class="st5" d="M226,293.6h108.9c0.4,0,0.8-0.4,0.8-0.8c0-0.4-0.4-0.8-0.8-0.8H226c-0.4,0-0.8,0.4-0.8,0.8 C225.2,293.2,225.5,293.6,226,293.6z"></path> <path id="Path-35" class="st5" d="M1.9,293.6h197c0.4,0,0.8-0.4,0.8-0.8c0-0.4-0.4-0.8-0.8-0.8H1.9c-0.4,0-0.8,0.3-0.8,0.7 c0,0,0,0.1,0,0.1C1.1,293.2,1.4,293.6,1.9,293.6z"></path> <path id="Path-36" class="st0" d="M419.6,262.2h88.8c1.7,0,3.2-1.4,3.2-3.2v-39.5c0-1.7-1.4-3.2-3.2-3.2h-88.9 c-1.7,0-3.2,1.4-3.2,3.2v39.6C416.5,260.8,417.9,262.2,419.6,262.2z"></path> <path id="Shape-10" class="st9" d="M419.6,263h88.8c2.2,0,4-1.8,4-4v-39.5c0-2.2-1.8-4-4-4h-88.9c-2.2,0-4,1.8-4,4v39.6 C415.7,261.3,417.5,263,419.6,263z M508.5,217.2c1.3,0,2.3,1.1,2.3,2.3v39.5c0,1.3-1.1,2.3-2.3,2.3h-88.9c-1.3,0-2.3-1.1-2.3-2.3 v-39.5c0-1.3,1.1-2.3,2.3-2.3L508.5,217.2z"></path> <path id="Path-37" class="st9" d="M428.4,230.4h21.7c0.4,0,0.8-0.4,0.8-0.8c0-0.4-0.4-0.8-0.8-0.8h-21.7c-0.4,0-0.8,0.4-0.8,0.8 C427.6,230.1,427.9,230.4,428.4,230.4C428.4,230.4,428.4,230.4,428.4,230.4z"></path> <path id="Path-38" class="st9" d="M458.7,230.4h27.8c0.4,0,0.8-0.4,0.8-0.8c0-0.4-0.4-0.8-0.8-0.8h-27.8c-0.4,0-0.8,0.4-0.8,0.8 C457.9,230.1,458.3,230.4,458.7,230.4z"></path> <path id="Path-39" class="st9" d="M431,240.1h47.1c0.4,0,0.8-0.4,0.8-0.8c0-0.4-0.4-0.8-0.8-0.8H431c-0.4,0-0.8,0.4-0.8,0.8 C430.2,239.8,430.6,240.1,431,240.1L431,240.1z"></path> <path id="Path-40" class="st9" d="M489.3,240.1h13c0.4,0,0.8-0.4,0.8-0.8c0-0.4-0.4-0.8-0.8-0.8h-13c-0.4,0-0.8,0.4-0.8,0.8 C488.5,239.8,488.8,240.1,489.3,240.1z"></path> <path id="Path-41" class="st9" d="M425.1,249.9h33.7c0.4,0,0.8-0.3,0.8-0.8c0-0.4-0.3-0.8-0.8-0.8c0,0,0,0-0.1,0h-33.7 c-0.4,0-0.8,0.3-0.8,0.8C424.2,249.5,424.6,249.8,425.1,249.9C425,249.9,425,249.9,425.1,249.9z"></path> <path id="Path-42" class="st9" d="M469.8,249.9h32.4c0.4,0,0.8-0.3,0.8-0.8c0-0.4-0.3-0.8-0.8-0.8c0,0,0,0-0.1,0h-32.4 c-0.4,0-0.8,0.3-0.8,0.8C469,249.5,469.3,249.8,469.8,249.9C469.8,249.9,469.8,249.9,469.8,249.9z"></path> <path id="Path-43" class="st2" d="M495.4,225.6c1.7-1,1.9-2.1,1.9-2.1s0.2,1.1,1.9,2.1c1,0.4,2,0.6,3.1,0.6 c-0.1,3.4-1.9,6.6-4.9,8.3c-3-1.7-4.9-4.8-4.9-8.3C493.4,226.3,494.4,226.1,495.4,225.6z"></path> <path id="Path-44" class="st0" d="M15.3,53h78.4c1.7,0,3.2-1.4,3.2-3.2V8.4c0-1.7-1.4-3.2-3.2-3.2H15.3c-1.7,0-3.2,1.4-3.2,3.2 v41.4C12.1,51.5,13.5,52.9,15.3,53C15.2,53,15.2,53,15.3,53z"></path> <path id="Shape-11" class="st10" d="M15.3,53.8h78.4c2.2,0,4-1.8,4-4V8.4c0-2.2-1.8-4-4-4H15.3c-2.2,0-4,1.8-4,4v41.4 C11.3,52,13.1,53.8,15.3,53.8z M93.6,6.2c1.3,0,2.3,1.1,2.3,2.3v41.4c0,1.3-1.1,2.3-2.3,2.3H15.3c-1.3,0-2.3-1.1-2.3-2.3V8.4 c0-1.3,1.1-2.3,2.3-2.3L93.6,6.2L93.6,6.2z"></path> <path id="Path-45" class="st2" d="M82.8,11.4c1.7-1,1.9-2.1,1.9-2.1s0.2,1.1,1.9,2.1c1,0.4,2,0.6,3.1,0.6 c-0.1,3.4-1.9,6.6-4.9,8.3c-3-1.7-4.9-4.8-4.9-8.3C80.8,12,81.8,11.8,82.8,11.4z"></path> <path id="Path-46" class="st10" d="M22.6,16.4h19.3c0.4,0,0.8-0.3,0.8-0.8s-0.3-0.8-0.8-0.8c0,0,0,0-0.1,0H22.6 c-0.4,0-0.8,0.3-0.8,0.7c0,0,0,0.1,0,0.1C21.8,16.1,22.2,16.4,22.6,16.4z"></path> <path id="Path-47" class="st10" d="M49.7,16.4h24c0.4,0,0.8-0.4,0.8-0.8c0-0.4-0.4-0.8-0.8-0.8h-24c-0.4,0-0.8,0.3-0.8,0.7 c0,0,0,0.1,0,0.1C48.9,16.1,49.2,16.4,49.7,16.4z"></path> <path id="Path-48" class="st10" d="M55.8,25.1h32.6c0.4,0,0.8-0.3,0.8-0.8s-0.3-0.8-0.8-0.8c0,0,0,0-0.1,0H55.8 c-0.4,0-0.8,0.3-0.8,0.8S55.3,25.1,55.8,25.1C55.7,25.1,55.7,25.1,55.8,25.1z"></path> <path id="Path-49" class="st10" d="M30.4,33.8H63c0.4,0,0.8-0.4,0.8-0.8c0-0.4-0.4-0.8-0.8-0.8H30.4c-0.4,0-0.8,0.3-0.8,0.7 c0,0,0,0.1,0,0.1C29.6,33.4,30,33.8,30.4,33.8z"></path> <path id="Path-50" class="st10" d="M69,33.8h19.4c0.4,0,0.8-0.3,0.8-0.8s-0.3-0.8-0.8-0.8c0,0,0,0-0.1,0H69 c-0.4,0-0.8,0.3-0.8,0.8S68.5,33.8,69,33.8C69,33.8,69,33.8,69,33.8z"></path> <path id="Path-51" class="st10" d="M22.6,42.7h19.3c0.4,0,0.8-0.3,0.8-0.8s-0.3-0.8-0.8-0.8c0,0,0,0-0.1,0H22.6 c-0.4,0-0.8,0.3-0.8,0.7c0,0,0,0.1,0,0.1C21.8,42.3,22.2,42.7,22.6,42.7z"></path> <path id="Path-52" class="st10" d="M49.7,42.7h38.6c0.4,0,0.8-0.4,0.8-0.8c0-0.4-0.4-0.8-0.8-0.8H49.7c-0.4,0-0.8,0.3-0.8,0.7 c0,0,0,0.1,0,0.1C48.9,42.3,49.2,42.7,49.7,42.7z"></path> <path id="Path-53" class="st10" d="M36.2,25.1h13.5c0.4,0,0.8-0.4,0.8-0.8c0-0.4-0.4-0.8-0.8-0.8H36.2c-0.4,0-0.8,0.3-0.8,0.7 c0,0,0,0.1,0,0.1C35.4,24.7,35.7,25.1,36.2,25.1z"></path> <path id="Path-54" class="st10" d="M22.6,25.1h8.4c0.4,0,0.8-0.3,0.8-0.8s-0.3-0.8-0.8-0.8c0,0,0,0-0.1,0h-8.4 c-0.4,0-0.8,0.3-0.8,0.7c0,0,0,0.1,0,0.1C21.8,24.7,22.2,25.1,22.6,25.1z"></path> <path id="Path-55" class="st0" d="M219.7,37.1h67.2c1.7,0,3.2-1.4,3.2-3.2V4c0-1.7-1.4-3.2-3.2-3.2h-67.2c-1.7,0-3.2,1.4-3.2,3.2 v30C216.6,35.7,218,37.1,219.7,37.1z"></path> <path id="Shape-12" class="st9" d="M219.7,37.9h67.2c2.2,0,4-1.8,4-4V4c0-2.2-1.8-4-4-4h-67.2c-2.2,0-4,1.8-4,4v30 C215.8,36.2,217.6,37.9,219.7,37.9z M286.9,1.6c1.3,0,2.3,1.1,2.3,2.3v30c0,1.3-1.1,2.3-2.3,2.3h-67.2c-1.3,0-2.3-1.1-2.3-2.3V4 c0-1.3,1.1-2.3,2.3-2.3L286.9,1.6z"></path> <path id="Path-56" class="st9" d="M223.9,12.1h17.2c0.4,0,0.8-0.3,0.8-0.8s-0.3-0.8-0.8-0.8c0,0,0,0-0.1,0h-17.2 c-0.4,0-0.8,0.3-0.8,0.7c0,0,0,0.1,0,0.1C223.1,11.7,223.5,12.1,223.9,12.1z"></path> <path id="Path-57" class="st9" d="M248.1,12.1h20.7c0.4,0,0.8-0.3,0.8-0.8s-0.3-0.8-0.8-0.8c0,0,0,0-0.1,0h-20.7 c-0.4,0-0.8,0.4-0.8,0.8C247.3,11.7,247.6,12,248.1,12.1z"></path> <path id="Path-58" class="st9" d="M228.1,19.8h35.5c0.4,0,0.8-0.3,0.8-0.8s-0.3-0.8-0.8-0.8c0,0,0,0-0.1,0h-35.5 c-0.4,0-0.8,0.4-0.8,0.8C227.3,19.4,227.6,19.7,228.1,19.8z"></path> <path id="Path-59" class="st9" d="M272.3,19.8h10.3c0.4,0,0.8-0.4,0.8-0.8c0-0.4-0.4-0.8-0.8-0.8h-10.3c-0.4,0-0.8,0.3-0.8,0.7 c0,0,0,0.1,0,0.1C271.5,19.4,271.8,19.8,272.3,19.8z"></path> <path id="Path-60" class="st9" d="M230.7,27.4h18.7c0.4,0,0.8-0.4,0.8-0.8c0-0.4-0.4-0.8-0.8-0.8h-18.7c-0.4,0-0.8,0.4-0.8,0.8 C230,27.1,230.3,27.4,230.7,27.4z"></path> <path id="Path-61" class="st9" d="M256.9,27.4h25.7c0.4,0,0.8-0.4,0.8-0.8c0-0.4-0.4-0.8-0.8-0.8h-25.7c-0.4,0-0.8,0.4-0.8,0.8 C256.1,27.1,256.5,27.4,256.9,27.4z"></path> <path id="Path-62" class="st2" d="M276.5,6.3c1.7-1,1.9-2.1,1.9-2.1s0.2,1.1,1.9,2.1c1,0.4,2,0.6,3.1,0.6 c-0.1,3.4-1.9,6.6-4.9,8.3c-3-1.7-4.9-4.8-4.9-8.3C274.5,7,275.5,6.8,276.5,6.3z"></path> <path id="Path-63" class="st5" d="M249.8,99.7c0-9.8,7.9-17.7,17.7-17.8c9.2,0,16.9,7,17.7,16.2c0,0.2,0,0.5,0.1,0.7 c0.3,4.7,2.3,9.1,5.7,12.3c3.3,3.3,8.2,6.2,7.7,15.1c-0.7,12.1-9.1,16.7-18.1,17.2C270.1,144.2,250.4,142.4,249.8,99.7z"></path> <path id="Path-64" class="st0" d="M284.3,135.3c-13,2-22.3,13-26.4,25.3c-3.9,11.8-8.7,38.9-8.7,38.9l-54.4,8.3l15.9,15.7l44-4.5 c5.6-0.7,10.5-4.2,13.1-9.1c8.6-16.4,25.3-47.2,23.6-63.9C290.8,140.3,289,134.6,284.3,135.3z"></path> <path id="Path-65" class="st1" d="M286,149.5c-13,2-19.1,10-22.3,22.5c-2.8,11.1-4.9,25.6-5.9,34.6c-0.6,4.6-4.6,8.1-9.2,8 l-36.5,3.9l1.1,5.7l41.6-5.4c5.6-0.7,10.5-4.2,13.1-9.1c8.6-16.4,25.3-47.2,23.6-63.9C290.8,140.3,290.6,148.8,286,149.5z"></path> <path id="Path-66" class="st4" d="M244.2,220.8c0.4,0,0.7-0.2,0.8-0.6c1.9-6.8,0.1-11.7-1.8-14.6c-1.1-1.9-2.7-3.5-4.6-4.7 c-0.4-0.3-0.9-0.2-1.1,0.2c-0.3,0.4-0.2,0.9,0.2,1.1c0,0,0,0,0,0c0.4,0.2,9,5.7,5.7,17.5c-0.1,0.4,0.2,0.8,0.6,1L244.2,220.8z"></path> <path id="Shape-13" class="st5" d="M211.3,225L211.3,225l37.7-4.9c2.9-0.2,5.7-0.5,8.5-1.1c4.8-1.4,8.8-4.6,11.1-9.1l1.3-2.5 c9-17.1,24.1-45.7,22.3-61.9c-0.4-3.6-1.4-8.2-4-10.3c-1.1-0.9-2.6-1.2-4-1c-12.1,1.9-21.5,10.5-26,24.4 c-3.6,10.8-8.8,35.9-9.6,39.8l-49.2,8.4c-0.3,0.1-0.5,0.3-0.6,0.5c-0.1,0.3-0.1,0.6,0.1,0.8l11.8,16.3 C210.7,224.9,211,225,211.3,225z M249,218.5L249,218.5l-37.2,4.8L201,208.5l48.5-8.3c0.3-0.1,0.6-0.3,0.6-0.6 c0.1-0.3,5.9-28.6,9.7-40.2c4.4-13.3,13.2-21.5,24.7-23.3c1-0.2,2,0.1,2.8,0.6c1.7,1.3,2.9,4.6,3.5,9.1 c1.7,15.6-13.3,44-22.2,60.9l-1.3,2.5c-2.1,4-5.8,7-10.1,8.3C254.4,218,251.7,218.4,249,218.5L249,218.5z"></path> <path id="Path-67" class="st0" d="M169.9,207.4l58.7,15.9l-15.6-47.1c-1.2-3.4-3.9-4.1-6.3-4.6l-55.7-12.3 c-1.9-0.4-3.1,0.6-2.8,3.2c0.2,1.8,1,4,2.8,8.3l15.1,33.5C166.8,205.8,168.2,207,169.9,207.4z"></path> <path id="Path-68" class="st1" d="M219.1,209c-2.9-8.9-6.6-20.2-9.8-30.4c-0.4-2.1-2.1-3.7-4.1-4.2l-57.6-12.8 c0,0,0.2-2.8,2.5-2.3c7.9,1.5,37.8,8.4,53.1,11.7c8.6,1.9,8.2,2.8,8.7,3.6c1.4,1.7,16.6,48.9,16.6,48.9l-58.7-15.9 c-1.7-0.5-3.1-1.6-3.8-3.2l-1-2.1c11.1,3.4,37,9.1,37,9.1c-0.9-4,3.5-4.4,7.6-3.5C212.4,208.5,217.2,208.4,219.1,209z"></path> <path id="Path-69" class="st0" d="M178.9,192.5c-0.9-2.6-0.5-5.2,1.1-5.7s3.6,1.1,4.5,3.7s0.5,5.2-1.1,5.7 S179.8,195.1,178.9,192.5z"></path> <path id="Shape-14" class="st5" d="M182.7,197.1c0.3,0,0.6-0.1,0.9-0.2c2-0.7,2.7-3.7,1.5-6.8s-3.6-4.9-5.6-4.2s-2.7,3.7-1.5,6.8 c0.4,1.3,1.2,2.5,2.3,3.4C181,196.7,181.8,197.1,182.7,197.1z M180.6,187.4c1,0,2.3,1.2,3.2,3.3c0.9,2.3,0.4,4.4-0.6,4.7 c-0.6,0.1-1.3-0.1-1.7-0.6c-0.8-0.8-1.4-1.7-1.8-2.8c-0.9-2.3-0.4-4.4,0.6-4.7L180.6,187.4z"></path> <path id="Path-70" class="st5" d="M222.2,219.3c0.1,0,0.2,0,0.2-0.1c0.4-0.1,0.6-0.6,0.5-1c0,0,0,0,0,0l-3.7-11.2 c-0.2-0.4-0.6-0.6-1.1-0.5c-0.4,0.2-0.6,0.6-0.5,1.1l3.7,11.2C221.6,219.1,221.9,219.3,222.2,219.3z"></path> <path id="Shape-15" class="st5" d="M228.5,224.2c0.2,0,0.4-0.1,0.6-0.2c0.2-0.2,0.3-0.5,0.2-0.8L213.6,176 c-1.4-3.8-4.1-4.6-6.9-5.1l-55.6-12.3c-1.7-0.6-3.5,0.4-4.1,2c-0.2,0.6-0.2,1.2-0.1,1.8c0.2,1.7,1.1,3.8,2.8,7.3l0.6,1.3 l15.1,33.5c0.8,1.8,2.4,3.1,4.3,3.6l58.7,15.9C228.3,224.2,228.4,224.2,228.5,224.2z M150,160.1c0.2,0,0.4,0,0.6,0.1l55.7,12.3 c2.5,0.5,4.6,1.1,5.7,4l15.1,45.7L170,206.6c-1.4-0.4-2.6-1.4-3.2-2.8l-15.6-34.8c-1.5-3.4-2.3-5.4-2.6-6.9 c-0.2-0.6,0-1.3,0.4-1.8C149.1,160.1,149.5,160.1,150,160.1z"></path> <path id="Path-71" class="st5" d="M215.3,198.4h0.2c0.4-0.2,0.7-0.6,0.6-1.1l-5.9-18.8c-0.1-0.5-0.6-0.7-1-0.6 c-0.5,0.1-0.7,0.6-0.6,1c0,0,0,0,0,0l5.9,18.8C214.6,198.2,214.9,198.5,215.3,198.4z"></path> <path id="Path-72" class="st5" d="M281,96.1c0-9.8,7.8-17.7,17.6-17.8c0.4,0,0.8,0,1.2,0c8.7,0.5,16.3,17.3,16.3,17.6 c0.1,4.6,2.3,8.9,6,11.7c3.7,2.8,9.7,5.9,9.7,15.9c0,12.1-11.1,15.9-20.2,16.5C301.3,140.6,281.6,138.9,281,96.1z"></path> <path id="Path-73" class="st0" d="M320.2,265.8l-61.8-33.1l8.2-43.6c-0.6-4.4-5.7-4.9-2.9-17c0.8-3.6,3.4-7.3,4.6-10.8 c4.6-13.3,10-24,15.8-25.4l20.3-5.6c27.9,2.8,39.3,17.6,34.5,49.5l-7.1,37.9L320.2,265.8z"></path> <path id="Path-74" class="st3" d="M274.9,189.1l-8.7,7.2l0.1-9.1L274.9,189.1z"></path> <path id="Path-75" class="st1" d="M309.7,230.1c6.9-11.5,13.1-23.5,18.5-35.8l0.3,0.1c0,0-14.4,33.7-19.2,41.5 c-0.6,0.9-1.1,1.9-1.8,3.1c-3.4,6-10.9,8.2-17,5l-17.8-7.8l0.3-0.6l16.8,4.6C290,240.5,302.9,241.6,309.7,230.1z"></path> <path id="Path-76" class="st0" d="M295.2,122.7l3.9-11.6l1.9-1.1c0,0,1.3,13.2,3.3,17.1c0.9,1.7,5.4,5.4,5.4,5.4 c-3.8,6.3-9.3,11.3-15.9,14.6c-3,1.4-16,2.6-9.8-9.2l-1.1-5.1c0.7-0.1,1.4-0.2,2-0.3C290.5,131.3,294,125.5,295.2,122.7z"></path> <path id="Path-77" class="st1" d="M284.9,135.5c0-0.5-0.3-1.3-1.5-2.3l-2.8-11.2l15.2-8.8c0,0,1.7,7.7,0.4,11.8 c-2.4,7.7-7,9.6-10.8,10.9c-0.2,0.1-0.4,0-0.5-0.2C284.9,135.6,284.9,135.5,284.9,135.5z"></path> <path id="Path-78" class="st0" d="M267.9,89.1c13.4,18.7,29.6,11.7,29.6,11.7l4.4-0.6c2.1,1.1,3.6,3.2,3.9,5.6 c0.6,3.9-2.1,7.5-6,8l-1.7,0.3l-2.9,8.7c-1.2,2.8-4.8,8.6-10.1,9.7c-0.7,0.2-1.4,0.2-2,0.3c-11.1,1.3-17.5-6.2-22.8-19.6 c-1.5-3.8-3.7-11.4-4.8-15.1h0.2C259,97.5,267.9,89.1,267.9,89.1z"></path> <path id="Path-79" class="st5" d="M280.1,133.9c1.8,0,3.5-0.3,5.3-0.7c5.8-1.5,10.8-7.9,11.7-13c0.1-0.4-0.2-0.9-0.6-1 c-0.4-0.1-0.9,0.2-1,0.6c-0.8,4.5-5.3,10.3-10.5,11.7c-9.8,2.7-17.7-2.7-22.3-15c-2.1-5.7-7.9-21.5-8.1-22.3 c-0.1-0.4-0.5-0.7-0.9-0.6c0,0,0,0,0,0c-0.4,0.1-0.7,0.5-0.6,0.9c0.1,0.4,8.1,22.3,8.1,22.5C265.2,128.2,271.7,133.9,280.1,133.9z "></path> <path id="Path-80" class="st5" d="M299.8,114.6L299.8,114.6c2.1-0.2,4-1.3,5.2-3c1.2-1.7,1.8-3.8,1.5-5.9c-0.2-2.1-1.3-4-2.9-5.3 c-1.6-1.3-3.7-1.9-5.7-1.7c-0.4,0-0.8,0.4-0.7,0.9c0,0.4,0.4,0.8,0.9,0.7c1.6-0.2,3.3,0.2,4.5,1.3c1.3,1.1,2.1,2.6,2.3,4.3 c0.2,1.7-0.2,3.4-1.2,4.7c-1,1.3-2.4,2.2-4,2.4c-0.4,0.1-0.7,0.5-0.7,0.9C299,114.2,299.4,114.5,299.8,114.6z"></path> <path id="Path-81" class="st5" d="M254,75.9c8.7-3.3,17.2-9.1,31.2-9.9c28.1-1.5,31,23.6,31,31.8l-14.3,2.2l-4.4,0.6 c0,0-16.2,7-29.6-11.7c0,0-8.9,8.4-12.3,8.9h-0.2c-3.8,0.5-7.7-1-10-4.1C241.5,88.7,241.9,80.6,254,75.9z"></path> <path id="Path-82" class="st5" d="M269.9,121h0.2l3.9-1.2c0.4-0.2,0.7-0.6,0.6-1.1c-0.1-0.4-0.6-0.6-1-0.6l-2.9,0.9l-0.6-5.3 c0-0.4-0.4-0.8-0.9-0.7c-0.4,0-0.8,0.4-0.7,0.9l0.7,6.3c0,0.2,0.1,0.4,0.3,0.6C269.6,120.9,269.8,121,269.9,121z"></path> <path id="Path-83" class="st0" d="M152.6,218.5c3.7-5.7,10.4-12.1,17.2-11c0,0,103,35.2,105.8,36.1c45.7,14.5,32.9,53.6,17.7,53.6 c0,0-29.1,3.2-57-13.3c-25.7-15.1-62.5-33.7-62.5-33.7L127,286.1c0,0-9.4-2.3-11-6.1C115.9,280,143.5,232.8,152.6,218.5z"></path> <path id="Path-84" class="st0" d="M134,284.3l-7.8,11c0,0-17.8,1.9-20.2-2.2l12.3-15.4L134,284.3z"></path> <path id="Path-85" class="st1" d="M134,284.3l-6.2,10.2c0,0-5.4,0.6-8.3,0l7.6-9.6L134,284.3z"></path> <path id="Path-86" class="st0" d="M128.2,294.8v10.9c0,2.2-1.8,4-4,4c0,0-0.1,0-0.1,0H75.8c-3.9,0-6.6-4.3-4.5-7.6 c0.4-0.7,1-1.2,1.8-1.5c3.6-1,31.1-11.5,31.1-11.5s2.4,3.8,13.2,5C119.7,294.4,128.2,294.8,128.2,294.8z"></path> <path id="Path-87" class="st1" d="M128.2,294.8v10.9c0,2.2-1.8,4-4,4c0,0-0.1,0-0.1,0l-9.6-0.1v-16 C121.1,295.1,128.4,294.6,128.2,294.8z"></path> <path id="Path-88" class="st5" d="M126.6,295.4c0.2,0,0.5-0.1,0.6-0.3l4.5-6.6c0.2-0.4,0.1-0.9-0.2-1.1c-0.4-0.2-0.9-0.1-1.1,0.2 l0,0l-4.5,6.6c-0.2,0.4-0.2,0.9,0.2,1.1c0,0,0,0,0,0C126.3,295.3,126.5,295.4,126.6,295.4z"></path> <path id="Path-89" class="st5" d="M109.1,291.1c0.3,0,0.5-0.1,0.6-0.3l7-8.7c0.3-0.4,0.2-0.9-0.2-1.1s-0.9-0.2-1.1,0.2l0,0l-7,8.7 c-0.3,0.3-0.2,0.8,0.1,1.1c0,0,0,0,0,0C108.8,291.1,109,291.1,109.1,291.1z"></path> <path id="Path-90" class="st0" d="M108.9,293.9c0,0,1.9-2.3,2.5-3.1c1.3-1.7,1.8-3.2,0-4.3c-1.3-0.6-2.6-1-4-1.2 c-0.7-0.1-1.4,0-1.9,0.5l-4.9,6.3"></path> <path id="Path-91" class="st5" d="M108.9,294.7c0.3,0,0.5-0.1,0.6-0.3c0.1-0.1,1.9-2.3,2.5-3.1c0.7-1.1,1.5-2.3,1.3-3.5 c-0.2-0.9-0.8-1.6-1.5-1.9c-1.3-0.6-2.8-1.1-4.2-1.3c-1-0.2-1.9,0.1-2.7,0.7l-4.9,4.8c-0.3,0.3-0.3,0.8,0,1.1 c0.3,0.3,0.8,0.3,1.1,0l4.9-4.7c0.3-0.3,0.8-0.4,1.2-0.3c1.3,0.2,2.5,0.6,3.7,1.1c0.4,0.2,0.7,0.5,0.8,0.9c-0.1,0.8-0.4,1.6-1,2.2 c-0.6,0.7-2.4,3-2.4,3c-0.3,0.3-0.3,0.8,0,1.1c0,0,0,0,0,0C108.6,294.6,108.7,294.7,108.9,294.7z"></path> <path id="Path-92" class="st5" d="M78.3,305.2h49.1c0.4,0,0.8-0.4,0.8-0.8c0-0.4-0.4-0.8-0.8-0.8H78.3c-0.4,0-0.8,0.4-0.8,0.8 C77.5,304.8,77.8,305.1,78.3,305.2z"></path> <path id="Path-93" class="st1" d="M161.9,227.7c3.7-5.7,13-18.1,19.8-17c0,0,83.7,24.9,86.5,25.7c12.9,4,23.5,13.9,27.4,20.7 c10.3,17.3,2.5,40-8.3,40c0,0-22.9,3.2-50.9-13.3c-25.7-15.1-62.5-33.7-62.5-33.7l-42,38c0,0-6.8-1.6-9.7-3.7 C122.1,284.4,152.8,242,161.9,227.7z"></path> <path id="Shape-16" class="st5" d="M282.6,298.2c1.6,0,3.2,0,4.8-0.2c6.5-0.1,12.4-7.9,13.8-18.1c2.3-16.4-6.7-37.2-38.8-46.1 c-2.8-0.8-91.4-26.8-92.3-27h-0.1c-7.1-1.1-14.2,5.4-18.1,11.4c-9.1,14.2-36.4,61-36.7,61.5c-0.1,0.2-0.2,0.5-0.1,0.7 c1.7,4,15,8.1,16.4,8.6c0.3,0.1,0.6,0,0.8-0.2l41.6-37.6c4.5,2.3,38.2,19.5,62,33.4C256.4,296.6,274.3,298.2,282.6,298.2z M169.6,208.2c2.5,0.7,89.5,26.3,92.2,27c31,8.7,39.8,28.6,37.6,44.3c-1.3,9.4-6.6,16.8-12.2,16.8h-0.1c-0.2,0-23,2.9-50.4-13.2 c-25.4-14.9-62.2-33.5-62.6-33.8c-0.3-0.1-0.6-0.1-0.9,0.1l-41.7,37.7c-5.2-1.6-13.2-4.9-14.8-7.2c2.7-4.6,27.9-47.7,36.4-61.1 C156.8,213.3,163.3,207.3,169.6,208.2L169.6,208.2z"></path> <path id="Path-94" class="st5" d="M76.2,310.5h47.5c2.7,0,4.8-2.2,4.9-4.9v-10.9c0-0.4-0.4-0.8-0.8-0.8c-0.1,0-7.5-0.3-9.9-0.6 c-3.9-0.5-5.7-0.7-6.6-1c-0.1-0.4-0.4-0.6-0.8-0.6c0,0-0.1,0-0.1,0c-1.1,0.1-1.3,0.6-1.3,1c0,0.8,0,1.2,8.6,2.2 c1.9,0.2,7.3,0.5,9.2,0.6v10.2c0,1.8-1.5,3.2-3.2,3.2H76.1c-1.8,0-3.4-1-4.3-2.5c-0.7-1.2-0.7-2.6,0-3.8c0.5-0.6,1.1-1,1.8-1.2 c3.6-1,26.2-9.6,27-10c0.4-0.1,0.7-0.6,0.5-1c-0.1-0.4-0.6-0.7-1-0.5c0,0,0,0,0,0c-0.2,0.1-23.4,9-27,10c-1.1,0.3-2.1,1-2.8,1.9 c-1.1,1.7-1.1,3.8,0,5.4C71.6,309.1,73.8,310.4,76.2,310.5z"></path> <path id="Path-95" class="st0" d="M144.3,293.1l-4.4,8.8c0,0-18.2,1.1-20.6-3l9.6-11.6L144.3,293.1z"></path> <path id="Path-96" class="st0" d="M141,300.2v10.9c0,2.2-1.8,4-4,4c0,0-0.1,0-0.1,0H88.6c-3.9,0-6.6-4.3-4.5-7.6 c0.4-0.7,1-1.2,1.8-1.5c3.6-1,31.1-11.5,31.1-11.5s2.4,3.8,13.2,5C132.6,299.8,141,300.2,141,300.2z"></path> <path id="Shape-17" class="st5" d="M88.6,316H137c2.7,0,4.9-2.2,4.9-4.9v-10.9c0-0.4-0.4-0.8-0.8-0.8c-0.1,0-8.5-0.3-10.8-0.6 c-10.1-1.2-12.6-4.6-12.6-4.7c-0.2-0.3-0.6-0.5-1-0.3c-0.2,0.1-27.4,10.5-31,11.5c-1,0.3-1.8,1-2.3,1.9c-1.1,1.8-1.1,4-0.1,5.7 C84.3,314.8,86.4,316,88.6,316z M140.2,300.9v10.1c0,1.8-1.5,3.2-3.2,3.2H88.6c-1.6,0-3-0.9-3.8-2.3c-0.7-1.3-0.7-2.9,0.1-4.1 c0.3-0.5,0.7-0.9,1.3-1.1c3.4-1,26.6-9.9,30.6-11.3c1.1,1.1,4.6,3.9,13.4,4.9C132.1,300.6,138.1,300.9,140.2,300.9z"></path> <path id="Path-97" class="st5" d="M140.5,300.9c0.3,0,0.6-0.2,0.7-0.4l3.8-6.4c0.3-0.4,0.2-0.9-0.2-1.1s-0.9-0.2-1.1,0.2 c0,0,0,0,0,0l-3.8,6.4c-0.2,0.4-0.1,0.9,0.2,1.1C140.2,300.8,140.3,300.9,140.5,300.9z"></path> <path id="Path-98" class="st5" d="M121.5,296.6c0.3,0,0.5-0.1,0.6-0.3l7-8.7c0.3-0.3,0.2-0.9-0.1-1.1s-0.9-0.2-1.1,0.1 c0,0,0,0,0,0l-7,8.7c-0.3,0.3-0.2,0.8,0.1,1.1c0,0,0,0,0,0C121.2,296.6,121.4,296.6,121.5,296.6z"></path> <path id="Path-99" class="st0" d="M121.3,299.4c0,0,1.9-2.3,2.5-3.1c1.3-1.7,1.8-3.2,0-4.3c-1.3-0.6-2.6-1-4-1.2 c-0.7-0.1-1.4,0-1.9,0.5l-4.9,6.3"></path> <path id="Path-100" class="st5" d="M121.3,300.2c0.3,0,0.5-0.1,0.6-0.3c0.1-0.1,1.9-2.3,2.5-3.1c0.7-1.1,1.5-2.3,1.3-3.5 c-0.2-0.9-0.7-1.6-1.5-1.9c-1.3-0.6-2.8-1.1-4.2-1.3c-1-0.2-1.9,0.1-2.7,0.7l-4.9,4.8c-0.3,0.3-0.3,0.8,0,1.1 c0.3,0.3,0.8,0.3,1.1,0l0,0l4.9-4.7c0.3-0.3,0.8-0.4,1.2-0.3c1.3,0.2,2.5,0.6,3.7,1.1c0.4,0.2,0.7,0.5,0.8,0.9 c-0.1,0.8-0.4,1.6-1,2.2c-0.6,0.7-2.4,3-2.4,3c-0.3,0.3-0.3,0.8,0,1.1c0,0,0,0,0,0C121,300.2,121.1,300.2,121.3,300.2z"></path> <path id="Path-101" class="st5" d="M90.7,310.7h47.8c0.4,0,0.8-0.3,0.8-0.8c0-0.4-0.3-0.8-0.8-0.8c0,0,0,0-0.1,0H90.7 c-0.4,0-0.8,0.3-0.8,0.8C89.8,310.3,90.2,310.6,90.7,310.7C90.6,310.7,90.7,310.7,90.7,310.7z"></path> <path id="Path-102" class="st0" d="M266.4,233.7c-33.9-9.5-75.6-20.6-75.6-20.6c-6.8-1.1-13.6,1.6-17.7,7.1l-46.1,65.9 c6,3.4,12.4,5.9,19.1,7.4c0,0,0.6-0.6,30.9-21.9c17.2-12,21.7-21.5,21.7-21.5l61.9,37.7c10,6.1,21.4,9.3,33.1,9.3 c15.1,0,28.1-13.9,27.4-31.4c0,0-19.8-15.5-27-19.8C287.6,242.2,266.4,233.7,266.4,233.7z"></path> <path id="Path-103" class="st3" d="M274.2,279c-34.6-6.7-75.4-38.5-75.4-38.5c-6.8-1.1-15.7,13.6-26.4,21.2L138.5,291 c2.5,1,5,1.9,7.6,2.6c0,0,0.6-0.6,30.9-21.9c17.2-12,21.7-21.5,21.7-21.5l61.9,37.7c10,6.1,21.4,9.3,33.1,9.3 c15.1,0,28.1-13.9,27.4-31.4c0,0-2.6-4.2-9.8-8.4C311.3,257.4,315.1,287,274.2,279z"></path> <path id="Path-104" class="st5" d="M293.8,298c7.4-0.1,14.5-3.2,19.5-8.7c6-6.4,9.1-14.9,8.7-23.6c0-0.4-0.3-0.8-0.8-0.8 c-0.4,0-0.8,0.3-0.8,0.8c0,0,0,0,0,0.1c0.4,8.3-2.5,16.4-8.2,22.4c-4.7,5.1-11.3,8.1-18.3,8.2c-11.5,0-22.8-3.2-32.6-9.1 l-61.9-37.7c-0.2-0.1-0.4-0.1-0.6-0.1c-0.2,0.1-0.4,0.2-0.5,0.4c-0.1,0.1-4.7,9.4-21.5,21.1c-17.3,12.1-28.4,19.9-30.7,21.6 c-6.2-1.5-12.1-3.8-17.7-6.8l45.6-65.2c4-5.3,10.5-7.9,17-6.8c0.2,0.1,27.2,6.6,54.6,14.4c9.8,2.8,18.7,5.7,26.5,8.7 c0.4,0.2,0.9-0.1,1.1-0.5c0.2-0.4-0.1-0.9-0.5-1.1c-7.8-3-16.7-6-26.6-8.8c-27.4-7.9-54.5-14.4-54.7-14.5 c-7.1-1.1-14.3,1.7-18.6,7.4l-46.1,65.9c-0.1,0.2-0.2,0.4-0.2,0.6c0.1,0.2,0.2,0.4,0.4,0.5c6,3.4,12.6,5.9,19.3,7.4 c0.3,0.1,0.5,0,0.7-0.2c0.2-0.2,2.7-2.1,30.9-21.8c14.6-10.2,20.1-18.5,21.6-21l61.2,37.2C270.5,294.7,282.1,298.1,293.8,298z"></path> <path id="Path-105" class="st5" d="M198.8,251c0.3,0,0.6-0.1,0.7-0.4c0.2-0.4,0.1-0.9-0.3-1.1c0,0,0,0,0,0l-5.2-2.8 c-0.4-0.2-0.9-0.1-1.1,0.3c-0.2,0.4-0.1,0.9,0.3,1.1c0,0,0,0,0.1,0l5.2,2.8C198.5,251,198.6,251,198.8,251z"></path> <path id="Path-106" class="st5" d="M321.2,266.6h0.2c0.3-0.1,0.5-0.4,0.6-0.6c1.7-8.3,4.1-19.1,6.3-28.6c1.1-4.9,2.1-9.4,2.8-12.7 l0.2-1c6.2-28.4,7.9-36,8.8-48.3c1.9-25.3-5.6-32.7-12.8-37.7c-10-7-19.1-7.4-19.5-7.4c-0.4,0-0.8,0.4-0.8,0.8 c0,0.4,0.4,0.8,0.8,0.8c6.7,0.7,13.2,3.2,18.6,7.1c6.9,4.8,14,11.9,12.1,36.3c-1,12.1-2.6,19.8-8.8,48.1l-0.2,1 c-0.7,3.3-1.7,7.8-2.8,12.7c-2,9-4.3,19-6,27.2c-4.2-3.9-20.7-18.1-41.2-25.9c-10.8-4.1-17.6-6.5-19.8-7.2 c4.5-17.8,8-42.8,7.3-44.2c-5.4-9.1-2.2-15.8,0.6-21.7c1.2-2.2,2.1-4.6,2.6-7c0.1-0.4-0.3-0.8-0.7-0.9c0,0,0,0,0,0 c-0.4-0.1-0.8,0.2-0.9,0.6c0,0,0,0.1,0,0.1c-0.5,2.3-1.3,4.5-2.4,6.6c-2.8,6-6.3,13.4-0.6,23.1c0.1,2.1-2.7,24.7-7.5,43.8 c-0.1,0.4,0.2,0.8,0.6,1c0.1,0,7.4,2.4,20.4,7.4c23.5,8.9,41.6,26.4,41.8,26.6C320.8,266.5,320.9,266.6,321.2,266.6z"></path> <path id="Path-107" class="st5" d="M289,148.5c5.8,0,11.3-2.8,15.9-8c2.2-2.5,4-5.3,5.3-8.3c0.1-0.2,0.1-0.5-0.1-0.7 c-0.2-0.2-0.3-0.4-0.6-0.4c0,0-2.8-0.6-5.2-6.1c-1.6-3.7-2.1-7.7-1.7-11.7c0.1-0.4-0.2-0.9-0.6-1c-0.4-0.1-0.9,0.2-1,0.6 c-0.6,4.3,0,8.6,1.8,12.5c1.9,4.5,4.1,6.2,5.4,6.7c-1.5,3.2-8.2,15.1-20,14.7c-1.7,0.1-3.3-0.8-4.1-2.3c-1-1.8-0.6-4.4,1.1-7 c0.3-0.4,0.2-0.9-0.2-1.1c-0.4-0.3-0.9-0.2-1.1,0.2c0,0,0,0,0,0c-1.9,3-2.4,6.2-1.2,8.6c1.1,2,3.2,3.2,5.5,3.2H289z"></path> <path id="Path-108" class="st5" d="M277.9,143.3c0.4,0,0.7-0.3,0.8-0.7c0.4-2.3,1.3-4.4,2.6-6.3c0.2-0.4,0.1-0.9-0.3-1.1 c-0.4-0.2-0.9-0.1-1.1,0.2c-1.4,2.1-2.4,4.5-2.8,7c-0.1,0.4,0.2,0.8,0.6,0.9C277.7,143.2,277.8,143.2,277.9,143.3 C277.8,143.3,277.8,143.3,277.9,143.3C277.9,143.3,277.9,143.3,277.9,143.3z"></path> <path id="Path-109" class="st5" d="M289.7,153.4c9.2,0,15.5-5.4,19.4-10.4c0.3-0.4,0.2-0.9-0.2-1.1c-0.4-0.3-0.9-0.2-1.1,0.2l0,0 c-4.1,5.3-11.3,11.3-22.1,9.4c-2.3-0.4-4.4-1.7-5.8-3.6c-0.2-0.4-0.7-0.4-1.1-0.2c0,0,0,0,0,0c-0.3,0.3-0.4,0.8-0.2,1.1 c1.7,2.2,4.2,3.7,6.9,4.2C286.9,153.3,288.3,153.4,289.7,153.4z"></path> <path id="Path-110" class="st5" d="M286,143.3L286,143.3c0.5,0,0.8-0.4,0.8-0.9c0,0,0,0,0,0c-0.3-3.4-1.2-6.7-2.8-9.7 c-0.2-0.4-0.7-0.5-1.1-0.3c-0.4,0.2-0.5,0.7-0.3,1.1c1.4,2.8,2.3,5.9,2.5,9.1C285.2,143,285.5,143.3,286,143.3z"></path> <path id="Path-111" class="st5" d="M240.6,221.3c0.4,0,0.8-0.3,0.8-0.7c1.1-17.4-8.6-18.7-9-18.8c-0.4-0.1-0.9,0.3-0.9,0.7 c-0.1,0.4,0.3,0.9,0.7,0.9c0,0,0,0,0.1,0c0.3,0.1,8.5,1.3,7.5,17.1C239.8,220.9,240.2,221.2,240.6,221.3z"></path> <path id="Path-112" class="st5" d="M266.3,117.5c-0.8,0.3-1.8-0.1-2.1-1l-0.9-2.5c-0.3-0.8,0.1-1.8,1-2.1c0.8-0.3,1.8,0.1,2.1,1 l0,0l0.9,2.5C267.5,116.2,267.1,117.1,266.3,117.5z"></path> <path id="Path-113" class="st5" d="M275.4,113.6c-0.8,0.4-1.8,0-2.2-0.8l-1.1-2.4c-0.4-0.8,0-1.8,0.8-2.2c0.8-0.4,1.8,0,2.2,0.8 l1.1,2.4C276.6,112.2,276.3,113.2,275.4,113.6C275.5,113.6,275.5,113.6,275.4,113.6z"></path> <path id="Path-114" class="st5" d="M260.9,108.9c0.3,0,0.6-0.2,0.7-0.5c0.5-1.1,1.9-0.7,2-0.6c0.4,0.2,0.9,0,1-0.5s0-0.9-0.5-1 c-0.1,0-0.1,0-0.2,0c-1.1-0.3-3.2-0.4-4,1.6c-0.2,0.4,0,0.9,0.4,1c0,0,0.1,0,0.1,0H260.9z"></path> <path id="Path-115" class="st5" d="M269.6,105.4c0.3,0,0.6-0.2,0.7-0.4c1.1-1.9,2.5-1.3,2.8-1.2c0.4,0.2,0.8,0.1,1-0.3 c0,0,0,0,0,0c0.2-0.3,0.1-0.8-0.2-1c0,0-0.1,0-0.1-0.1c-1-0.6-3.3-0.9-4.9,1.8c-0.2,0.4-0.1,0.9,0.2,1.1 C269.3,105.3,269.4,105.4,269.6,105.4z"></path> <path id="Path-116" class="st5" d="M278.2,123.1c4.5,0,7.3-3.9,8.2-6.3c0.1-0.4-0.1-0.9-0.5-1c-0.4-0.1-0.9,0.1-1,0.5 c-0.1,0.2-2.6,6.6-8.4,5c-0.4-0.2-0.9,0-1,0.5c-0.2,0.4,0,0.9,0.5,1c0.1,0,0.1,0,0.2,0C276.7,123,277.4,123.2,278.2,123.1z"></path> <path id="Path-117" class="st0" d="M203.9,213c0,0-1.1-2.3,1.1-3.2c0.2-0.1,6.5,0.8,11.7,1c2.5,0,5-0.2,7.5-0.6l-1.1-3.7 c3.9,0.4,12.9,7.8,12.9,7.8l49.5-0.5h1.8l3.2-8.7l11.3-30.3c3.2-13,3.6-25.3,12.1-28.9c20.2-8.5,25.2,18.8,20.1,33.4 c-1.7,4.9-3.7,10-5.9,15c-5.4,12.3-11.6,24.3-18.5,35.8c-6.9,11.4-19.8,10.3-19.8,10.3l-16.8-4.6l-32.5-9l-33.9-9.1 c0,0-4.9-1.1-6-2.5C200,214.4,201.2,212.9,203.9,213z"></path> <path id="Path-118" class="st4" d="M276.8,237.6c0.3,0,0.6-0.2,0.7-0.4c6.2-10.9,1-22.7,0.8-23.2c-0.1-0.4-0.6-0.6-1-0.5 c-0.4,0.1-0.6,0.6-0.5,1c0,0,0,0.1,0.1,0.1c0.1,0.1,5.1,11.5-0.7,21.7c-0.2,0.4-0.1,0.9,0.3,1.1c0,0,0,0,0,0 C276.6,237.6,276.7,237.6,276.8,237.6z"></path> <path id="Path-119" class="st5" d="M244.2,215.2h2.8l40.9-0.5c0.3,0,0.6-0.2,0.7-0.5c0.6-1.5,14.1-37.2,16.5-50.1 c0.1-0.4-0.2-0.9-0.6-1c-0.4-0.1-0.9,0.2-1,0.6c-2.2,12-14.6,44.9-16.3,49.3l-40.3,0.5h-1.1c-2,0-5.9,0-8-0.2 c-0.6-0.1-1.2-0.2-1.7-0.6c-6.1-4-10.4-6.4-13-7c-0.4-0.2-0.9,0-1,0.5c-0.2,0.4,0,0.9,0.5,1c0.1,0,0.1,0,0.2,0 c1.7,0.4,5.3,1.9,12.5,6.8c0.8,0.5,1.6,0.8,2.5,0.9C239.4,215.1,242.1,215.2,244.2,215.2z"></path> <path id="Path-120" class="st5" d="M206.1,214.6c0.4,0,0.7-0.3,0.8-0.6c0.1-0.4-0.2-0.8-0.6-1c-0.8-0.2-1.8-0.6-1.7-1.3 c0-0.1,0.1-0.3,0.2-0.4c0.5-0.3,1.1-0.4,1.6-0.3c0.2,0,0.4,0,0.6,0.1c9.1,1.1,14.8,1.4,17.2,0.6c0.4-0.1,0.7-0.6,0.6-1.1 c-0.1-0.4-0.6-0.7-1.1-0.6c-1.5,0.5-5.6,0.7-16.6-0.6c-0.2,0-0.4,0-0.6-0.1c-1-0.2-2.1,0.1-2.9,0.7c-0.5,0.4-0.7,1-0.7,1.6 c0,0.8,0.4,2.3,3,2.9C206,214.6,206.1,214.6,206.1,214.6z"></path> <path id="Path-121" class="st5" d="M291.5,241.3c0.6,0,1.2,0,1.8-0.1c9.6-1,15.5-8.2,18.7-14.1c8.6-15.6,19-36.4,22.8-47.4 c0.2-0.4-0.1-0.9-0.5-1.1c-0.4-0.2-0.9,0.1-1.1,0.5c-3.6,10.9-14.1,31.6-22.7,47.1c-3.1,5.6-8.6,12.4-17.4,13.3 c-2.4,0.2-4.9,0-7.2-0.7l-53.4-14.8c-10-2.8-25.1-6.9-25.8-7.1c-0.4-0.2-0.9,0-1.1,0.5s0,0.9,0.5,1.1c0,0,0,0,0,0 c0.9,0.3,23.4,6.5,25.9,7.1l53.4,14.8C287.4,240.9,289.4,241.2,291.5,241.3z"></path> <path id="Path-122" class="st5" d="M272,236.3c0.3,0,0.6-0.2,0.7-0.5c6.2-12.9,0.8-21.9,0.6-22.2c-0.2-0.4-0.7-0.5-1.1-0.3 c-0.4,0.2-0.5,0.7-0.3,1.1c0,0,0,0,0,0c0.1,0.1,5.2,8.7-0.6,20.6c-0.2,0.4,0,0.9,0.4,1.1C271.7,236.2,271.8,236.3,272,236.3z"></path> <path id="Path-123" class="st5" d="M292.1,214.6c0.4,0,0.8-0.4,0.8-0.8c0-0.4-0.4-0.8-0.8-0.8h-5.3c-0.4,0-0.8,0.4-0.8,0.8 c0,0.4,0.4,0.8,0.8,0.8H292.1z"></path> <path id="Path-124" class="st5" d="M206.5,218.4c0.4,0,0.7-0.2,0.8-0.6c0.1-0.4-0.2-0.8-0.6-1l-4-1.1c-1.3-0.5-1.9-1-1.8-1.5 c0.1-0.2,0.2-0.3,0.3-0.4c0.6-0.2,1.2-0.2,1.8,0c0.6,0.2,1.2,0.3,1.9,0.5c0.6,0.2,1.1,0.2,1.8,0.4c2.7,0.8,5.4,1.2,8.2,1.3 c0.4,0,0.8-0.4,0.8-0.8c0-0.4-0.3-0.8-0.7-0.8c0,0-0.1,0-0.1,0c-2.6-0.1-5.2-0.5-7.8-1.2c-0.6-0.2-1.3-0.3-1.9-0.5 c-0.6-0.2-1.2-0.2-1.8-0.4c-1-0.3-2.1-0.3-3.1,0.2c-0.5,0.3-0.9,0.8-1.1,1.5c-0.3,1.5,0.6,2.6,2.8,3.4l4,1.1L206.5,218.4z"></path> <path id="Path-125" class="st0" d="M115.3,137h78.4c1.7,0,3.2-1.4,3.2-3.2V92.4c0-1.7-1.4-3.2-3.2-3.2h-78.4 c-1.7,0-3.2,1.4-3.2,3.2v41.4C112.1,135.5,113.5,136.9,115.3,137C115.2,137,115.2,137,115.3,137z"></path> <path id="Shape-18" class="st10" d="M115.3,137.8h78.4c2.2,0,4-1.8,4-4V92.4c0-2.2-1.8-4-4-4h-78.4c-2.2,0-4,1.8-4,4v41.4 C111.3,136,113.1,137.8,115.3,137.8z M193.6,90.2c1.3,0,2.3,1.1,2.3,2.3v41.4c0,1.3-1.1,2.3-2.3,2.3h-78.4c-1.3,0-2.3-1.1-2.3-2.3 V92.4c0-1.3,1.1-2.3,2.3-2.3L193.6,90.2L193.6,90.2z"></path> <path id="Path-126" class="st2" d="M182.8,95.4c1.7-1,1.9-2.1,1.9-2.1s0.2,1.1,1.9,2.1c1,0.4,2,0.6,3.1,0.6 c-0.1,3.4-1.9,6.6-4.9,8.3c-3-1.7-4.9-4.8-4.9-8.3C180.8,96,181.8,95.8,182.8,95.4z"></path> <path id="Path-127" class="st10" d="M122.6,100.4h19.3c0.4,0,0.8-0.3,0.8-0.8s-0.3-0.8-0.8-0.8c0,0,0,0-0.1,0h-19.3 c-0.4,0-0.8,0.3-0.8,0.7c0,0,0,0.1,0,0.1C121.8,100.1,122.2,100.4,122.6,100.4z"></path> <path id="Path-128" class="st10" d="M149.7,100.4h24c0.4,0,0.8-0.4,0.8-0.8c0-0.4-0.4-0.8-0.8-0.8h-24c-0.4,0-0.8,0.3-0.8,0.7 c0,0,0,0.1,0,0.1C148.9,100.1,149.2,100.4,149.7,100.4z"></path> <path id="Path-129" class="st10" d="M155.8,109.1h32.6c0.4,0,0.8-0.3,0.8-0.8s-0.3-0.8-0.8-0.8c0,0,0,0-0.1,0h-32.6 c-0.4,0-0.8,0.3-0.8,0.8S155.2,109.1,155.8,109.1C155.7,109.1,155.7,109.1,155.8,109.1z"></path> <path id="Path-130" class="st10" d="M130.4,117.8H163c0.4,0,0.8-0.4,0.8-0.8c0-0.4-0.4-0.8-0.8-0.8h-32.5c-0.4,0-0.8,0.3-0.8,0.7 c0,0,0,0.1,0,0.1C129.6,117.4,130,117.8,130.4,117.8z"></path> <path id="Path-131" class="st10" d="M169,117.8h19.4c0.4,0,0.8-0.3,0.8-0.8s-0.3-0.8-0.8-0.8c0,0,0,0-0.1,0H169 c-0.4,0-0.8,0.3-0.8,0.8S168.5,117.8,169,117.8C169,117.8,169,117.8,169,117.8z"></path> <path id="Path-132" class="st10" d="M122.6,126.7h19.3c0.4,0,0.8-0.3,0.8-0.8s-0.3-0.8-0.8-0.8c0,0,0,0-0.1,0h-19.3 c-0.4,0-0.8,0.3-0.8,0.7c0,0,0,0.1,0,0.1C121.8,126.3,122.2,126.7,122.6,126.7z"></path> <path id="Path-133" class="st10" d="M149.7,126.7h38.6c0.4,0,0.8-0.4,0.8-0.8c0-0.4-0.4-0.8-0.8-0.8h-38.6c-0.4,0-0.8,0.3-0.8,0.7 c0,0,0,0.1,0,0.1C148.9,126.3,149.2,126.7,149.7,126.7z"></path> <path id="Path-134" class="st10" d="M136.2,109.1h13.5c0.4,0,0.8-0.4,0.8-0.8c0-0.4-0.4-0.8-0.8-0.8h-13.5c-0.4,0-0.8,0.3-0.8,0.7 c0,0,0,0.1,0,0.1C135.4,108.7,135.7,109.1,136.2,109.1z"></path> <path id="Path-135" class="st10" d="M122.6,109.1h8.4c0.4,0,0.8-0.3,0.8-0.8s-0.3-0.8-0.8-0.8c0,0,0,0-0.1,0h-8.4 c-0.4,0-0.8,0.3-0.8,0.7c0,0,0,0.1,0,0.1C121.8,108.7,122.2,109.1,122.6,109.1z"></path> <path id="Path-136" class="st8" d="M346.6,148.9c2.7,2.7,7.1,2.8,9.8,0.1c0,0,0,0,0.1-0.1c2.8-2.8,2.8-7.3,0-10 c-2.7-2.7-7.1-2.8-9.8-0.1c0,0,0,0-0.1,0.1C343.9,141.7,343.9,146.1,346.6,148.9z"></path> <path id="Shape-19" class="st5" d="M351.5,151.8c2.1,0,4.1-0.8,5.5-2.3c3-3.1,3-8.1,0-11.2c-2.9-3-7.7-3.1-10.8-0.2 c-0.1,0.1-0.2,0.1-0.2,0.2c-3,3.1-3,8.1,0,11.2C347.5,150.9,349.4,151.8,351.5,151.8z M351.5,137.6c1.6,0,3.2,0.7,4.4,1.9 c2.4,2.5,2.4,6.4,0,8.9c-1.1,1.2-2.7,1.9-4.4,1.9c-1.6,0-3.2-0.7-4.4-1.9c-2.4-2.5-2.4-6.4,0-8.9 C348.3,138.3,349.9,137.6,351.5,137.6z"></path> <path id="Path-137" class="st8" d="M353.6,172.9c2.7,2.7,7.1,2.8,9.8,0.1c0,0,0,0,0.1-0.1c2.8-2.8,2.8-7.3,0-10 c-2.7-2.7-7.1-2.8-9.8-0.1c0,0,0,0-0.1,0.1C350.9,165.7,350.9,170.1,353.6,172.9z"></path> <path id="Shape-20" class="st5" d="M358.5,175.8c2.1,0,4.1-0.8,5.5-2.3c3-3.1,3-8.1,0-11.2c-2.9-3-7.7-3.1-10.8-0.2 c-0.1,0.1-0.2,0.1-0.2,0.2c-3,3.1-3,8.1,0,11.2C354.5,174.9,356.4,175.8,358.5,175.8z M358.5,161.6c1.6,0,3.2,0.7,4.4,1.9 c2.4,2.5,2.4,6.4,0,8.9c-1.1,1.2-2.7,1.9-4.4,1.9c-1.6,0-3.2-0.7-4.4-1.9c-2.4-2.5-2.4-6.4,0-8.9 C355.3,162.3,356.9,161.6,358.5,161.6z"></path> </g> </g> </svg>